<mxfile host="app.diagrams.net" modified="2022-03-03T10:40:43.205Z" agent="5.0 (Windows NT 10.0; Win64; x64) AppleWebKit/537.36 (KHTML, like Gecko) Chrome/98.0.4758.102 Safari/537.36" etag="-J1lUO95X0FTY1aD3gIm" version="16.6.4" type="github">
  <diagram id="C5RBs43oDa-KdzZeNtuy" name="Page-1">
    <mxGraphModel dx="680" dy="379" grid="1" gridSize="10" guides="1" tooltips="1" connect="1" arrows="1" fold="1" page="1" pageScale="1" pageWidth="1200" pageHeight="1920" math="0" shadow="0">
      <root>
        <mxCell id="WIyWlLk6GJQsqaUBKTNV-0" />
        <mxCell id="WIyWlLk6GJQsqaUBKTNV-1" parent="WIyWlLk6GJQsqaUBKTNV-0" />
        <mxCell id="7TvibC5tmpHhkKPToRM5-1" value="" style="edgeStyle=orthogonalEdgeStyle;rounded=0;orthogonalLoop=1;jettySize=auto;html=1;" edge="1" parent="WIyWlLk6GJQsqaUBKTNV-1" source="WIyWlLk6GJQsqaUBKTNV-3" target="7TvibC5tmpHhkKPToRM5-0">
          <mxGeometry relative="1" as="geometry" />
        </mxCell>
        <mxCell id="WIyWlLk6GJQsqaUBKTNV-3" value="START" style="rounded=1;whiteSpace=wrap;html=1;fontSize=12;glass=0;strokeWidth=1;shadow=0;" parent="WIyWlLk6GJQsqaUBKTNV-1" vertex="1">
          <mxGeometry x="160" y="80" width="120" height="40" as="geometry" />
        </mxCell>
        <mxCell id="7TvibC5tmpHhkKPToRM5-9" value="" style="edgeStyle=orthogonalEdgeStyle;rounded=0;orthogonalLoop=1;jettySize=auto;html=1;" edge="1" parent="WIyWlLk6GJQsqaUBKTNV-1" source="7TvibC5tmpHhkKPToRM5-0" target="7TvibC5tmpHhkKPToRM5-8">
          <mxGeometry relative="1" as="geometry" />
        </mxCell>
        <mxCell id="7TvibC5tmpHhkKPToRM5-0" value="Read maximum node distance -&amp;gt; maxDistance.&lt;br&gt;Get raw LRPs." style="rounded=1;whiteSpace=wrap;html=1;fontSize=12;glass=0;strokeWidth=1;shadow=0;" vertex="1" parent="WIyWlLk6GJQsqaUBKTNV-1">
          <mxGeometry x="92.5" y="160" width="255" height="60" as="geometry" />
        </mxCell>
        <mxCell id="7TvibC5tmpHhkKPToRM5-17" value="" style="edgeStyle=orthogonalEdgeStyle;rounded=0;orthogonalLoop=1;jettySize=auto;html=1;" edge="1" parent="WIyWlLk6GJQsqaUBKTNV-1" source="7TvibC5tmpHhkKPToRM5-6" target="7TvibC5tmpHhkKPToRM5-16">
          <mxGeometry relative="1" as="geometry" />
        </mxCell>
        <mxCell id="7TvibC5tmpHhkKPToRM5-22" style="edgeStyle=orthogonalEdgeStyle;rounded=0;orthogonalLoop=1;jettySize=auto;html=1;" edge="1" parent="WIyWlLk6GJQsqaUBKTNV-1" source="7TvibC5tmpHhkKPToRM5-6">
          <mxGeometry relative="1" as="geometry">
            <mxPoint x="220" y="650" as="targetPoint" />
            <Array as="points">
              <mxPoint x="320" y="490" />
              <mxPoint x="320" y="650" />
            </Array>
          </mxGeometry>
        </mxCell>
        <mxCell id="7TvibC5tmpHhkKPToRM5-6" value="distance &amp;lt; maxDistance" style="rhombus;whiteSpace=wrap;html=1;shadow=0;fontFamily=Helvetica;fontSize=12;align=center;strokeWidth=1;spacing=6;spacingTop=-4;" vertex="1" parent="WIyWlLk6GJQsqaUBKTNV-1">
          <mxGeometry x="170" y="450" width="100" height="80" as="geometry" />
        </mxCell>
        <mxCell id="7TvibC5tmpHhkKPToRM5-12" value="" style="edgeStyle=orthogonalEdgeStyle;rounded=0;orthogonalLoop=1;jettySize=auto;html=1;" edge="1" parent="WIyWlLk6GJQsqaUBKTNV-1" source="7TvibC5tmpHhkKPToRM5-8" target="7TvibC5tmpHhkKPToRM5-11">
          <mxGeometry relative="1" as="geometry" />
        </mxCell>
        <mxCell id="7TvibC5tmpHhkKPToRM5-8" value="New List closeByNodes.&lt;br&gt;Call map database function to find nodes close by Coordinate within maxDistance -&amp;gt; List nodes." style="rounded=1;whiteSpace=wrap;html=1;fontSize=12;glass=0;strokeWidth=1;shadow=0;" vertex="1" parent="WIyWlLk6GJQsqaUBKTNV-1">
          <mxGeometry x="97.5" y="260" width="245" height="60" as="geometry" />
        </mxCell>
        <mxCell id="7TvibC5tmpHhkKPToRM5-13" value="" style="edgeStyle=orthogonalEdgeStyle;rounded=0;orthogonalLoop=1;jettySize=auto;html=1;" edge="1" parent="WIyWlLk6GJQsqaUBKTNV-1" source="7TvibC5tmpHhkKPToRM5-11" target="7TvibC5tmpHhkKPToRM5-6">
          <mxGeometry relative="1" as="geometry" />
        </mxCell>
        <mxCell id="7TvibC5tmpHhkKPToRM5-11" value="Calculate distance between 2 nodes in List nodes." style="rounded=1;whiteSpace=wrap;html=1;fontSize=12;glass=0;strokeWidth=1;shadow=0;" vertex="1" parent="WIyWlLk6GJQsqaUBKTNV-1">
          <mxGeometry x="97.5" y="360" width="245" height="60" as="geometry" />
        </mxCell>
        <mxCell id="7TvibC5tmpHhkKPToRM5-21" value="" style="edgeStyle=orthogonalEdgeStyle;rounded=0;orthogonalLoop=1;jettySize=auto;html=1;" edge="1" parent="WIyWlLk6GJQsqaUBKTNV-1" source="7TvibC5tmpHhkKPToRM5-16" target="7TvibC5tmpHhkKPToRM5-18">
          <mxGeometry relative="1" as="geometry" />
        </mxCell>
        <mxCell id="7TvibC5tmpHhkKPToRM5-16" value="Add node to List closebyNodes" style="whiteSpace=wrap;html=1;shadow=0;strokeWidth=1;spacing=6;spacingTop=-4;" vertex="1" parent="WIyWlLk6GJQsqaUBKTNV-1">
          <mxGeometry x="160" y="570" width="120" height="60" as="geometry" />
        </mxCell>
        <mxCell id="7TvibC5tmpHhkKPToRM5-25" style="edgeStyle=orthogonalEdgeStyle;rounded=0;orthogonalLoop=1;jettySize=auto;html=1;" edge="1" parent="WIyWlLk6GJQsqaUBKTNV-1" source="7TvibC5tmpHhkKPToRM5-18">
          <mxGeometry relative="1" as="geometry">
            <mxPoint x="220" y="340" as="targetPoint" />
            <Array as="points">
              <mxPoint x="80" y="705" />
              <mxPoint x="80" y="340" />
              <mxPoint x="220" y="340" />
            </Array>
          </mxGeometry>
        </mxCell>
        <mxCell id="7TvibC5tmpHhkKPToRM5-28" value="" style="edgeStyle=orthogonalEdgeStyle;rounded=0;orthogonalLoop=1;jettySize=auto;html=1;" edge="1" parent="WIyWlLk6GJQsqaUBKTNV-1" source="7TvibC5tmpHhkKPToRM5-18" target="7TvibC5tmpHhkKPToRM5-27">
          <mxGeometry relative="1" as="geometry" />
        </mxCell>
        <mxCell id="7TvibC5tmpHhkKPToRM5-18" value="List nodes still &lt;br&gt;have next node?" style="rhombus;whiteSpace=wrap;html=1;shadow=0;fontFamily=Helvetica;fontSize=12;align=center;strokeWidth=1;spacing=6;spacingTop=-4;" vertex="1" parent="WIyWlLk6GJQsqaUBKTNV-1">
          <mxGeometry x="150" y="670" width="140" height="70" as="geometry" />
        </mxCell>
        <mxCell id="7TvibC5tmpHhkKPToRM5-23" value="Yes" style="text;html=1;align=center;verticalAlign=middle;resizable=0;points=[];autosize=1;strokeColor=none;fillColor=none;" vertex="1" parent="WIyWlLk6GJQsqaUBKTNV-1">
          <mxGeometry x="225" y="540" width="30" height="20" as="geometry" />
        </mxCell>
        <mxCell id="7TvibC5tmpHhkKPToRM5-24" value="No" style="text;html=1;align=center;verticalAlign=middle;resizable=0;points=[];autosize=1;strokeColor=none;fillColor=none;" vertex="1" parent="WIyWlLk6GJQsqaUBKTNV-1">
          <mxGeometry x="280" y="470" width="30" height="20" as="geometry" />
        </mxCell>
        <mxCell id="7TvibC5tmpHhkKPToRM5-26" value="Yes" style="text;html=1;align=center;verticalAlign=middle;resizable=0;points=[];autosize=1;strokeColor=none;fillColor=none;" vertex="1" parent="WIyWlLk6GJQsqaUBKTNV-1">
          <mxGeometry x="110" y="680" width="30" height="20" as="geometry" />
        </mxCell>
        <mxCell id="7TvibC5tmpHhkKPToRM5-36" value="" style="edgeStyle=orthogonalEdgeStyle;rounded=0;orthogonalLoop=1;jettySize=auto;html=1;" edge="1" parent="WIyWlLk6GJQsqaUBKTNV-1" source="7TvibC5tmpHhkKPToRM5-27" target="7TvibC5tmpHhkKPToRM5-34">
          <mxGeometry relative="1" as="geometry" />
        </mxCell>
        <mxCell id="7TvibC5tmpHhkKPToRM5-27" value="Sort and add candidate nodes to resultSet" style="whiteSpace=wrap;html=1;shadow=0;strokeWidth=1;spacing=6;spacingTop=-4;" vertex="1" parent="WIyWlLk6GJQsqaUBKTNV-1">
          <mxGeometry x="160" y="770" width="120" height="60" as="geometry" />
        </mxCell>
        <mxCell id="7TvibC5tmpHhkKPToRM5-29" value="No" style="text;html=1;align=center;verticalAlign=middle;resizable=0;points=[];autosize=1;strokeColor=none;fillColor=none;" vertex="1" parent="WIyWlLk6GJQsqaUBKTNV-1">
          <mxGeometry x="220" y="740" width="30" height="20" as="geometry" />
        </mxCell>
        <mxCell id="7TvibC5tmpHhkKPToRM5-38" value="" style="edgeStyle=orthogonalEdgeStyle;rounded=0;orthogonalLoop=1;jettySize=auto;html=1;" edge="1" parent="WIyWlLk6GJQsqaUBKTNV-1" source="7TvibC5tmpHhkKPToRM5-34" target="7TvibC5tmpHhkKPToRM5-37">
          <mxGeometry relative="1" as="geometry" />
        </mxCell>
        <mxCell id="7TvibC5tmpHhkKPToRM5-34" value="Log result of finding candidate nodes for this LRP" style="whiteSpace=wrap;html=1;shadow=0;strokeWidth=1;spacing=6;spacingTop=-4;" vertex="1" parent="WIyWlLk6GJQsqaUBKTNV-1">
          <mxGeometry x="160" y="860" width="120" height="60" as="geometry" />
        </mxCell>
        <mxCell id="7TvibC5tmpHhkKPToRM5-39" style="edgeStyle=orthogonalEdgeStyle;rounded=0;orthogonalLoop=1;jettySize=auto;html=1;" edge="1" parent="WIyWlLk6GJQsqaUBKTNV-1" source="7TvibC5tmpHhkKPToRM5-37">
          <mxGeometry relative="1" as="geometry">
            <mxPoint x="220" y="240" as="targetPoint" />
            <Array as="points">
              <mxPoint x="40" y="990" />
              <mxPoint x="40" y="240" />
            </Array>
          </mxGeometry>
        </mxCell>
        <mxCell id="7TvibC5tmpHhkKPToRM5-42" value="" style="edgeStyle=orthogonalEdgeStyle;rounded=0;orthogonalLoop=1;jettySize=auto;html=1;" edge="1" parent="WIyWlLk6GJQsqaUBKTNV-1" source="7TvibC5tmpHhkKPToRM5-37" target="7TvibC5tmpHhkKPToRM5-41">
          <mxGeometry relative="1" as="geometry" />
        </mxCell>
        <mxCell id="7TvibC5tmpHhkKPToRM5-37" value="Is it last LRP?" style="rhombus;whiteSpace=wrap;html=1;shadow=0;fontFamily=Helvetica;fontSize=12;align=center;strokeWidth=1;spacing=6;spacingTop=-4;" vertex="1" parent="WIyWlLk6GJQsqaUBKTNV-1">
          <mxGeometry x="170" y="950" width="100" height="80" as="geometry" />
        </mxCell>
        <mxCell id="7TvibC5tmpHhkKPToRM5-40" value="No" style="text;html=1;align=center;verticalAlign=middle;resizable=0;points=[];autosize=1;strokeColor=none;fillColor=none;" vertex="1" parent="WIyWlLk6GJQsqaUBKTNV-1">
          <mxGeometry x="120" y="970" width="30" height="20" as="geometry" />
        </mxCell>
        <mxCell id="7TvibC5tmpHhkKPToRM5-41" value="Return resultSet" style="whiteSpace=wrap;html=1;shadow=0;strokeWidth=1;spacing=6;spacingTop=-4;" vertex="1" parent="WIyWlLk6GJQsqaUBKTNV-1">
          <mxGeometry x="160" y="1070" width="120" height="60" as="geometry" />
        </mxCell>
        <mxCell id="7TvibC5tmpHhkKPToRM5-43" value="Yes" style="text;html=1;align=center;verticalAlign=middle;resizable=0;points=[];autosize=1;strokeColor=none;fillColor=none;" vertex="1" parent="WIyWlLk6GJQsqaUBKTNV-1">
          <mxGeometry x="225" y="1040" width="30" height="20" as="geometry" />
        </mxCell>
        <mxCell id="7TvibC5tmpHhkKPToRM5-45" value="&lt;div style=&quot;color: rgb(212 , 212 , 212) ; background-color: rgb(30 , 30 , 30) ; font-family: &amp;#34;consolas&amp;#34; , &amp;#34;courier new&amp;#34; , monospace ; font-size: 14px ; line-height: 19px&quot;&gt;&lt;span style=&quot;color: #dcdcaa&quot;&gt;findCandidateNodes() function&lt;/span&gt;&lt;/div&gt;" style="text;html=1;align=center;verticalAlign=middle;resizable=0;points=[];autosize=1;strokeColor=none;fillColor=none;" vertex="1" parent="WIyWlLk6GJQsqaUBKTNV-1">
          <mxGeometry x="100" y="40" width="240" height="20" as="geometry" />
        </mxCell>
        <mxCell id="7TvibC5tmpHhkKPToRM5-46" value="&lt;div style=&quot;color: rgb(212 , 212 , 212) ; background-color: rgb(30 , 30 , 30) ; font-family: &amp;#34;consolas&amp;#34; , &amp;#34;courier new&amp;#34; , monospace ; font-weight: normal ; font-size: 14px ; line-height: 19px&quot;&gt;&lt;div&gt;&lt;span style=&quot;color: #dcdcaa&quot;&gt;findCandidateLinesDirectly() function&lt;/span&gt;&lt;/div&gt;&lt;/div&gt;" style="text;whiteSpace=wrap;html=1;" vertex="1" parent="WIyWlLk6GJQsqaUBKTNV-1">
          <mxGeometry x="600" y="20" width="290" height="30" as="geometry" />
        </mxCell>
        <mxCell id="7TvibC5tmpHhkKPToRM5-49" value="" style="edgeStyle=orthogonalEdgeStyle;rounded=0;orthogonalLoop=1;jettySize=auto;html=1;" edge="1" parent="WIyWlLk6GJQsqaUBKTNV-1" source="7TvibC5tmpHhkKPToRM5-47" target="7TvibC5tmpHhkKPToRM5-48">
          <mxGeometry relative="1" as="geometry" />
        </mxCell>
        <mxCell id="7TvibC5tmpHhkKPToRM5-47" value="START" style="rounded=0;whiteSpace=wrap;html=1;" vertex="1" parent="WIyWlLk6GJQsqaUBKTNV-1">
          <mxGeometry x="670" y="70" width="120" height="30" as="geometry" />
        </mxCell>
        <mxCell id="7TvibC5tmpHhkKPToRM5-51" value="" style="edgeStyle=orthogonalEdgeStyle;rounded=0;orthogonalLoop=1;jettySize=auto;html=1;" edge="1" parent="WIyWlLk6GJQsqaUBKTNV-1" source="7TvibC5tmpHhkKPToRM5-48" target="7TvibC5tmpHhkKPToRM5-50">
          <mxGeometry relative="1" as="geometry" />
        </mxCell>
        <mxCell id="7TvibC5tmpHhkKPToRM5-48" value="Log message.&lt;br&gt;Get MaxNodeDistance.&lt;br&gt;Call mdb method to find lines close by coordinate -&amp;gt; directLines." style="whiteSpace=wrap;html=1;rounded=0;" vertex="1" parent="WIyWlLk6GJQsqaUBKTNV-1">
          <mxGeometry x="550" y="140" width="360" height="60" as="geometry" />
        </mxCell>
        <mxCell id="7TvibC5tmpHhkKPToRM5-55" value="" style="edgeStyle=orthogonalEdgeStyle;rounded=0;orthogonalLoop=1;jettySize=auto;html=1;" edge="1" parent="WIyWlLk6GJQsqaUBKTNV-1" source="7TvibC5tmpHhkKPToRM5-50" target="7TvibC5tmpHhkKPToRM5-52">
          <mxGeometry relative="1" as="geometry" />
        </mxCell>
        <mxCell id="7TvibC5tmpHhkKPToRM5-50" value="Calculate distance from line to point" style="whiteSpace=wrap;html=1;rounded=0;" vertex="1" parent="WIyWlLk6GJQsqaUBKTNV-1">
          <mxGeometry x="670" y="260" width="120" height="60" as="geometry" />
        </mxCell>
        <mxCell id="7TvibC5tmpHhkKPToRM5-56" style="edgeStyle=orthogonalEdgeStyle;rounded=0;orthogonalLoop=1;jettySize=auto;html=1;" edge="1" parent="WIyWlLk6GJQsqaUBKTNV-1" source="7TvibC5tmpHhkKPToRM5-52">
          <mxGeometry relative="1" as="geometry">
            <mxPoint x="730" y="230" as="targetPoint" />
            <Array as="points">
              <mxPoint x="620" y="390" />
              <mxPoint x="620" y="230" />
              <mxPoint x="730" y="230" />
            </Array>
          </mxGeometry>
        </mxCell>
        <mxCell id="7TvibC5tmpHhkKPToRM5-59" value="" style="edgeStyle=orthogonalEdgeStyle;rounded=0;orthogonalLoop=1;jettySize=auto;html=1;" edge="1" parent="WIyWlLk6GJQsqaUBKTNV-1" source="7TvibC5tmpHhkKPToRM5-52" target="7TvibC5tmpHhkKPToRM5-58">
          <mxGeometry relative="1" as="geometry" />
        </mxCell>
        <mxCell id="7TvibC5tmpHhkKPToRM5-52" value="distance &amp;gt; maxDistance" style="rhombus;whiteSpace=wrap;html=1;shadow=0;fontFamily=Helvetica;fontSize=12;align=center;strokeWidth=1;spacing=6;spacingTop=-4;" vertex="1" parent="WIyWlLk6GJQsqaUBKTNV-1">
          <mxGeometry x="680" y="350" width="100" height="80" as="geometry" />
        </mxCell>
        <mxCell id="7TvibC5tmpHhkKPToRM5-57" value="Yes" style="text;html=1;align=center;verticalAlign=middle;resizable=0;points=[];autosize=1;strokeColor=none;fillColor=none;" vertex="1" parent="WIyWlLk6GJQsqaUBKTNV-1">
          <mxGeometry x="640" y="370" width="30" height="20" as="geometry" />
        </mxCell>
        <mxCell id="7TvibC5tmpHhkKPToRM5-58" value="" style="whiteSpace=wrap;html=1;shadow=0;strokeWidth=1;spacing=6;spacingTop=-4;" vertex="1" parent="WIyWlLk6GJQsqaUBKTNV-1">
          <mxGeometry x="670" y="470" width="120" height="60" as="geometry" />
        </mxCell>
        <mxCell id="7TvibC5tmpHhkKPToRM5-60" value="No" style="text;html=1;align=center;verticalAlign=middle;resizable=0;points=[];autosize=1;strokeColor=none;fillColor=none;" vertex="1" parent="WIyWlLk6GJQsqaUBKTNV-1">
          <mxGeometry x="740" y="440" width="30" height="20" as="geometry" />
        </mxCell>
      </root>
    </mxGraphModel>
  </diagram>
</mxfile>
